<svg id="svg" version="1.1" xmlns="http://www.w3.org/2000/svg" xmlns:xlink="http://www.w3.org/1999/xlink" width="400" height="307.03125" viewBox="0, 0, 400,307.03125"><g id="svgg"><path id="path0" d="M303.627 155.582 C 303.664 155.786,302.680 155.992,301.075 156.117 C 297.661 156.381,296.467 156.656,296.467 157.178 C 296.467 157.447,296.125 157.604,295.536 157.604 C 295.009 157.604,294.531 157.796,294.435 158.045 C 294.342 158.288,294.070 158.411,293.830 158.319 C 293.566 158.218,293.395 158.346,293.395 158.646 C 293.395 158.918,293.247 159.140,293.066 159.140 C 292.640 159.140,291.859 159.921,291.859 160.347 C 291.859 160.528,291.597 160.676,291.277 160.676 C 290.742 160.676,290.158 161.436,290.274 161.982 C 290.301 162.108,290.115 162.212,289.862 162.212 C 289.608 162.212,289.401 162.348,289.401 162.514 C 289.401 162.680,288.917 163.313,288.326 163.922 C 287.734 164.531,287.250 165.294,287.250 165.618 C 287.250 165.941,287.043 166.206,286.790 166.206 C 286.499 166.206,286.329 166.498,286.329 166.996 C 286.329 167.430,286.121 167.993,285.868 168.247 C 285.614 168.500,285.407 169.035,285.407 169.435 C 285.407 169.836,285.269 170.249,285.100 170.353 C 284.900 170.477,284.793 177.565,284.793 190.615 C 284.793 207.431,284.724 210.713,284.367 210.850 C 284.027 210.981,283.932 212.233,283.892 217.104 C 283.863 220.637,283.719 223.238,283.549 223.297 C 283.388 223.354,283.257 224.218,283.257 225.218 C 283.257 226.659,283.157 227.035,282.778 227.035 C 282.514 227.035,282.369 227.149,282.455 227.288 C 282.540 227.427,282.410 227.926,282.166 228.398 C 281.921 228.870,281.720 229.448,281.720 229.682 C 281.720 229.916,281.513 230.108,281.260 230.108 C 281.006 230.108,280.799 230.255,280.799 230.435 C 280.799 230.616,280.315 231.220,279.724 231.777 C 279.132 232.335,278.648 232.948,278.648 233.139 C 278.648 233.330,278.303 233.487,277.880 233.487 C 277.458 233.487,277.112 233.614,277.112 233.770 C 277.112 233.925,276.697 234.144,276.190 234.255 C 275.684 234.366,275.269 234.585,275.269 234.740 C 275.269 234.896,274.992 235.023,274.654 235.023 C 274.316 235.023,274.040 235.161,274.040 235.330 C 274.040 235.504,273.169 235.637,272.043 235.637 C 270.473 235.637,270.046 235.736,270.046 236.098 C 270.046 236.494,264.228 236.875,262.573 236.588 C 262.434 236.564,262.407 236.686,262.514 236.859 C 262.647 237.072,255.624 237.185,240.648 237.209 C 215.663 237.249,217.641 237.206,217.742 237.711 C 217.793 237.968,217.405 238.095,216.572 238.095 C 215.819 238.095,215.400 238.217,215.515 238.402 C 215.625 238.582,215.313 238.710,214.765 238.710 C 214.134 238.710,213.825 238.861,213.825 239.171 C 213.825 239.429,213.551 239.631,213.201 239.631 C 212.858 239.631,212.497 239.839,212.400 240.092 C 212.303 240.346,212.096 240.553,211.941 240.553 C 211.786 240.553,210.814 241.382,209.781 242.396 C 208.749 243.410,207.819 244.241,207.715 244.242 C 207.472 244.245,206.759 245.778,206.759 246.298 C 206.759 246.518,206.611 246.697,206.430 246.697 C 205.885 246.697,205.223 247.533,205.223 248.221 C 205.223 248.576,205.015 248.947,204.762 249.044 C 204.496 249.146,204.301 249.605,204.301 250.132 C 204.301 250.633,204.111 251.232,203.879 251.465 C 203.602 251.741,203.440 252.713,203.410 254.277 C 203.384 255.592,203.229 256.802,203.064 256.966 C 202.692 257.339,202.669 258.898,203.034 259.037 C 203.182 259.094,203.376 260.310,203.465 261.741 C 203.557 263.215,203.773 264.391,203.964 264.455 C 204.149 264.517,204.301 264.901,204.301 265.310 C 204.301 265.765,204.479 266.052,204.762 266.052 C 205.046 266.052,205.223 266.340,205.223 266.802 C 205.223 267.215,205.361 267.638,205.530 267.742 C 205.699 267.846,205.837 268.152,205.837 268.422 C 205.837 268.692,206.374 269.423,207.031 270.048 C 207.687 270.672,208.319 271.480,208.434 271.844 C 208.549 272.207,208.850 272.504,209.102 272.504 C 209.354 272.504,209.475 272.642,209.370 272.811 C 209.266 272.980,209.465 273.118,209.813 273.118 C 210.170 273.118,210.445 273.319,210.445 273.579 C 210.445 273.833,210.590 274.040,210.766 274.040 C 210.942 274.040,211.459 274.386,211.915 274.808 C 212.371 275.230,212.987 275.576,213.284 275.576 C 213.582 275.576,213.825 275.714,213.825 275.883 C 213.825 276.052,214.171 276.190,214.593 276.190 C 215.071 276.190,215.361 276.365,215.361 276.651 C 215.361 276.930,215.646 277.112,216.082 277.112 C 216.478 277.112,217.272 277.346,217.845 277.632 C 218.418 277.918,219.537 278.152,220.331 278.152 C 221.126 278.152,221.707 278.264,221.622 278.400 C 221.381 278.791,221.956 278.689,222.378 278.267 C 222.650 277.995,222.823 277.983,222.977 278.223 C 223.232 278.617,277.112 278.721,277.112 278.327 C 277.112 278.197,277.354 278.139,277.650 278.198 C 279.092 278.484,280.782 278.562,280.643 278.337 C 280.557 278.198,282.942 278.108,285.942 278.136 C 299.935 278.268,310.933 278.015,311.109 277.557 C 311.217 277.274,311.715 277.112,312.475 277.112 C 313.334 277.112,313.671 276.982,313.671 276.651 C 313.671 276.365,313.961 276.190,314.439 276.190 C 314.862 276.190,315.207 276.052,315.207 275.883 C 315.207 275.714,315.553 275.576,315.975 275.576 C 316.453 275.576,316.743 275.402,316.743 275.115 C 316.743 274.862,316.892 274.654,317.073 274.654 C 317.498 274.654,318.280 273.873,318.280 273.447 C 318.280 273.266,318.428 273.118,318.609 273.118 C 319.034 273.118,319.816 272.337,319.816 271.911 C 319.816 271.730,319.964 271.582,320.145 271.582 C 320.570 271.582,321.352 270.801,321.352 270.375 C 321.352 270.194,321.537 270.046,321.764 270.046 C 321.991 270.046,322.437 269.562,322.756 268.971 C 323.074 268.379,323.442 267.896,323.572 267.896 C 323.703 267.896,323.810 267.481,323.810 266.974 C 323.810 266.427,323.970 266.052,324.205 266.052 C 324.431 266.052,324.633 265.624,324.676 265.054 C 324.717 264.505,324.885 264.009,325.048 263.953 C 325.212 263.897,325.346 262.840,325.346 261.605 C 325.346 259.892,325.455 259.317,325.806 259.182 C 326.213 259.026,326.267 254.060,326.267 217.051 C 326.267 180.041,326.213 175.075,325.806 174.919 C 325.448 174.781,325.346 174.174,325.346 172.182 C 325.346 170.774,325.207 169.536,325.038 169.432 C 324.869 169.327,324.731 168.904,324.731 168.492 C 324.731 168.030,324.554 167.742,324.270 167.742 C 323.984 167.742,323.810 167.452,323.810 166.974 C 323.810 166.551,323.671 166.206,323.502 166.206 C 323.333 166.206,323.195 165.925,323.195 165.582 C 323.195 165.239,322.988 164.878,322.734 164.781 C 322.481 164.684,322.273 164.411,322.273 164.176 C 322.273 163.941,322.066 163.748,321.813 163.748 C 321.541 163.748,321.350 163.464,321.347 163.057 C 321.343 162.498,321.285 162.454,321.045 162.826 C 320.762 163.264,320.565 162.691,320.701 161.828 C 320.721 161.701,320.530 161.598,320.276 161.598 C 320.023 161.598,319.816 161.390,319.816 161.137 C 319.816 160.850,319.526 160.676,319.048 160.676 C 318.625 160.676,318.280 160.528,318.280 160.347 C 318.280 159.937,317.504 159.140,317.106 159.140 C 316.943 159.140,316.730 158.932,316.632 158.679 C 316.535 158.425,316.175 158.218,315.831 158.218 C 315.488 158.218,315.207 158.080,315.207 157.911 C 315.207 157.742,314.862 157.604,314.439 157.604 C 313.961 157.604,313.671 157.430,313.671 157.143 C 313.671 156.834,313.362 156.682,312.731 156.682 C 312.183 156.682,311.871 156.554,311.982 156.375 C 312.102 156.180,311.279 156.068,309.728 156.068 C 307.804 156.068,307.247 155.966,307.102 155.591 C 306.885 155.023,303.525 155.014,303.627 155.582 M217.867 157.085 C 217.683 157.306,216.882 157.521,216.088 157.563 C 215.293 157.604,214.399 157.768,214.101 157.928 C 213.802 158.087,213.264 158.218,212.905 158.218 C 212.546 158.218,212.323 158.332,212.409 158.471 C 212.495 158.611,211.950 159.024,211.198 159.389 C 210.446 159.755,209.831 160.194,209.831 160.365 C 209.831 160.536,209.624 160.676,209.370 160.676 C 209.117 160.676,208.943 160.780,208.984 160.906 C 209.026 161.033,208.542 161.684,207.909 162.353 C 207.276 163.022,206.759 163.808,206.759 164.101 C 206.759 164.394,206.637 164.709,206.489 164.801 C 205.301 165.535,204.378 202.821,205.530 203.533 C 205.699 203.637,205.837 203.996,205.837 204.329 C 205.837 204.662,206.045 205.014,206.298 205.112 C 206.551 205.209,206.759 205.530,206.759 205.825 C 206.759 206.120,207.104 206.735,207.527 207.191 C 207.949 207.646,208.297 208.254,208.300 208.541 C 208.304 208.990,208.346 208.999,208.602 208.602 C 208.857 208.208,208.901 208.219,208.905 208.679 C 208.907 208.975,209.056 209.217,209.235 209.217 C 209.414 209.217,209.475 209.355,209.370 209.524 C 209.266 209.693,209.400 209.831,209.669 209.831 C 209.938 209.831,210.237 210.038,210.334 210.292 C 210.432 210.545,210.704 210.753,210.939 210.753 C 211.175 210.753,211.367 210.891,211.367 211.060 C 211.367 211.229,211.713 211.367,212.135 211.367 C 212.613 211.367,212.903 211.541,212.903 211.828 C 212.903 212.115,213.193 212.289,213.671 212.289 C 214.094 212.289,214.439 212.423,214.439 212.587 C 214.439 213.006,251.505 213.020,251.764 212.600 C 251.870 212.429,252.294 212.289,252.706 212.289 C 253.168 212.289,253.456 212.112,253.456 211.828 C 253.456 211.541,253.746 211.367,254.224 211.367 C 254.647 211.367,254.992 211.229,254.992 211.060 C 254.992 210.891,255.200 210.753,255.453 210.753 C 255.707 210.753,255.914 210.561,255.914 210.328 C 255.914 210.094,256.190 209.831,256.527 209.742 C 256.864 209.654,257.234 209.327,257.349 209.015 C 257.465 208.704,257.638 208.379,257.735 208.295 C 258.038 208.031,258.689 206.936,258.877 206.375 C 258.977 206.079,259.170 205.837,259.307 205.837 C 259.838 205.837,260.560 203.763,260.563 202.227 C 260.565 201.340,260.693 200.614,260.847 200.614 C 261.206 200.614,261.144 175.156,260.784 174.934 C 260.415 174.705,260.456 172.043,260.829 172.043 C 261.443 172.043,260.971 167.885,260.195 166.440 C 260.037 166.147,259.908 165.693,259.908 165.432 C 259.908 165.171,259.700 164.878,259.447 164.781 C 259.194 164.684,258.986 164.273,258.986 163.869 C 258.986 163.420,258.807 163.134,258.525 163.134 C 258.272 163.134,258.065 162.926,258.065 162.673 C 258.065 162.419,257.926 162.212,257.757 162.212 C 257.588 162.212,257.450 162.005,257.450 161.751 C 257.450 161.498,257.208 161.288,256.912 161.286 C 256.453 161.282,256.442 161.238,256.836 160.983 C 257.208 160.742,257.164 160.684,256.605 160.681 C 256.198 160.678,255.914 160.487,255.914 160.215 C 255.914 159.962,255.707 159.754,255.453 159.754 C 255.200 159.754,254.992 159.616,254.992 159.447 C 254.992 159.278,254.844 159.140,254.663 159.140 C 254.482 159.140,254.127 158.932,253.873 158.679 C 253.620 158.425,253.077 158.218,252.666 158.218 C 252.256 158.218,251.920 158.080,251.920 157.911 C 251.920 157.742,251.288 157.604,250.516 157.604 C 249.677 157.604,248.926 157.418,248.650 157.143 C 248.006 156.498,218.400 156.443,217.867 157.085 " stroke="none" fill="#2ccc74" fill-rule="evenodd"></path><path id="path1" d="M88.018 18.740 C 87.914 18.909,86.948 19.048,85.872 19.048 C 84.542 19.048,83.767 19.195,83.454 19.508 C 83.201 19.762,82.685 19.969,82.309 19.969 C 81.933 19.969,81.172 20.315,80.618 20.737 C 80.064 21.160,79.394 21.505,79.130 21.505 C 78.865 21.505,78.648 21.713,78.648 21.966 C 78.648 22.253,78.358 22.427,77.880 22.427 C 77.458 22.427,77.112 22.565,77.112 22.734 C 77.112 22.903,76.905 23.041,76.651 23.041 C 76.398 23.041,76.190 23.225,76.190 23.450 C 76.190 23.675,75.845 24.044,75.422 24.270 C 75.000 24.496,74.654 24.865,74.654 25.090 C 74.654 25.315,74.548 25.499,74.417 25.499 C 74.286 25.499,73.919 25.983,73.601 26.575 C 73.282 27.166,72.870 27.651,72.686 27.652 C 72.298 27.655,71.582 29.064,71.582 29.824 C 71.582 30.108,71.375 30.512,71.121 30.722 C 70.868 30.932,70.661 31.433,70.661 31.835 C 70.661 32.237,70.522 32.565,70.353 32.565 C 70.183 32.565,70.046 33.385,70.046 34.409 C 70.046 35.842,69.944 36.252,69.585 36.252 C 69.178 36.252,69.124 41.372,69.124 80.492 C 69.124 119.611,69.178 124.731,69.585 124.731 C 69.933 124.731,70.046 125.107,70.046 126.267 C 70.046 127.112,70.184 127.803,70.353 127.803 C 70.522 127.803,70.661 128.292,70.661 128.888 C 70.661 129.569,70.832 130.039,71.121 130.150 C 71.375 130.247,71.582 130.598,71.582 130.930 C 71.582 131.262,71.755 131.727,71.966 131.962 C 72.816 132.909,73.118 133.317,73.118 133.515 C 73.118 133.628,73.602 134.178,74.194 134.736 C 74.785 135.293,75.269 135.897,75.269 136.078 C 75.269 136.258,75.476 136.406,75.730 136.406 C 75.983 136.406,76.190 136.613,76.190 136.866 C 76.190 137.120,76.335 137.327,76.512 137.327 C 76.688 137.327,77.178 137.673,77.601 138.095 C 78.023 138.518,78.570 138.863,78.816 138.863 C 79.062 138.863,79.263 139.002,79.263 139.171 C 79.263 139.339,79.594 139.478,79.998 139.478 C 80.402 139.478,80.813 139.685,80.910 139.939 C 81.007 140.192,81.359 140.399,81.693 140.399 C 82.026 140.399,82.384 140.538,82.488 140.707 C 82.593 140.876,83.361 141.014,84.196 141.014 C 85.341 141.014,85.714 141.127,85.714 141.475 C 85.714 141.861,86.377 141.935,89.840 141.935 C 93.097 141.935,94.062 141.839,94.426 141.475 C 94.680 141.221,95.381 141.014,95.984 141.014 C 96.588 141.014,97.081 140.876,97.081 140.707 C 97.081 140.538,97.431 140.399,97.859 140.399 C 98.287 140.399,98.716 140.192,98.814 139.939 C 98.911 139.685,99.172 139.478,99.394 139.478 C 99.963 139.478,101.739 138.504,102.335 137.865 C 102.611 137.569,102.928 137.327,103.040 137.327 C 103.328 137.327,105.991 134.628,105.991 134.336 C 105.991 134.203,106.336 133.834,106.759 133.517 C 107.181 133.200,107.527 132.683,107.527 132.369 C 107.527 132.054,107.665 131.797,107.834 131.797 C 108.003 131.797,108.141 131.536,108.141 131.216 C 108.141 130.896,108.349 130.555,108.602 130.457 C 108.856 130.360,109.063 129.930,109.063 129.503 C 109.063 129.075,109.201 128.725,109.370 128.725 C 109.539 128.725,109.677 128.187,109.677 127.529 C 109.677 126.749,109.838 126.271,110.138 126.156 C 110.542 126.001,110.599 123.066,110.599 102.314 C 110.599 86.742,110.704 78.648,110.906 78.648 C 111.092 78.648,111.214 77.368,111.214 75.422 C 111.214 72.760,111.294 72.197,111.674 72.197 C 111.995 72.197,112.135 71.874,112.135 71.139 C 112.135 70.558,112.273 69.997,112.442 69.892 C 112.611 69.788,112.750 69.365,112.750 68.953 C 112.750 68.540,112.892 68.203,113.066 68.203 C 113.241 68.203,113.475 67.964,113.587 67.672 C 113.699 67.380,114.085 66.861,114.445 66.520 C 114.805 66.178,115.194 65.644,115.309 65.332 C 115.424 65.020,115.793 64.693,116.131 64.605 C 116.468 64.517,116.743 64.253,116.743 64.019 C 116.743 63.786,116.951 63.594,117.204 63.594 C 117.458 63.594,117.665 63.456,117.665 63.287 C 117.665 63.118,118.011 62.980,118.433 62.980 C 118.911 62.980,119.201 62.806,119.201 62.519 C 119.201 62.188,119.541 62.058,120.412 62.058 C 121.078 62.058,121.708 61.920,121.813 61.751 C 121.917 61.582,122.537 61.444,123.191 61.444 C 123.845 61.444,124.587 61.237,124.841 60.983 C 125.243 60.581,128.445 60.522,149.901 60.522 C 166.096 60.522,174.501 60.417,174.501 60.215 C 174.501 60.046,175.127 59.908,175.893 59.908 C 176.847 59.908,177.341 59.763,177.462 59.447 C 177.561 59.189,178.018 58.986,178.503 58.986 C 179.382 58.986,181.254 58.099,181.258 57.680 C 181.259 57.554,181.536 57.450,181.874 57.450 C 182.215 57.450,182.488 57.245,182.488 56.989 C 182.488 56.736,182.730 56.524,183.026 56.519 C 183.690 56.507,184.639 55.815,184.639 55.342 C 184.639 55.150,184.787 54.992,184.968 54.992 C 185.394 54.992,186.175 54.211,186.175 53.785 C 186.175 53.604,186.324 53.456,186.506 53.456 C 187.085 53.456,188.633 51.685,188.633 51.022 C 188.633 50.660,188.832 50.384,189.094 50.384 C 189.347 50.384,189.555 50.177,189.555 49.923 C 189.555 49.670,189.693 49.462,189.862 49.462 C 190.031 49.462,190.169 48.978,190.169 48.387 C 190.169 47.636,190.308 47.312,190.630 47.312 C 190.963 47.312,191.091 46.970,191.091 46.083 C 191.091 45.407,191.229 44.854,191.398 44.854 C 191.592 44.854,191.705 42.755,191.705 39.171 C 191.705 35.586,191.592 33.487,191.398 33.487 C 191.229 33.487,191.091 33.072,191.091 32.565 C 191.091 31.951,190.937 31.644,190.630 31.644 C 190.308 31.644,190.169 31.319,190.169 30.568 C 190.169 29.977,190.031 29.493,189.862 29.493 C 189.693 29.493,189.555 29.286,189.555 29.032 C 189.555 28.779,189.347 28.571,189.094 28.571 C 188.840 28.571,188.633 28.300,188.633 27.968 C 188.633 27.335,187.041 25.499,186.493 25.499 C 186.318 25.499,186.175 25.351,186.175 25.170 C 186.175 24.745,185.394 23.963,184.968 23.963 C 184.787 23.963,184.639 23.806,184.639 23.613 C 184.639 23.141,183.690 22.449,183.026 22.437 C 182.730 22.431,182.488 22.220,182.488 21.966 C 182.488 21.713,182.272 21.505,182.007 21.505 C 181.742 21.505,181.073 21.160,180.519 20.737 C 179.954 20.306,179.101 19.969,178.575 19.969 C 178.026 19.969,177.566 19.779,177.462 19.508 C 177.328 19.159,176.762 19.048,175.125 19.048 C 173.890 19.048,172.965 18.916,172.965 18.740 C 172.965 18.315,88.281 18.315,88.018 18.740 M143.472 84.485 C 143.472 84.654,143.126 84.793,142.704 84.793 C 142.226 84.793,141.935 84.967,141.935 85.253 C 141.935 85.524,141.650 85.718,141.244 85.724 C 140.466 85.735,139.478 86.381,139.478 86.879 C 139.478 87.060,139.167 87.252,138.786 87.306 C 138.342 87.369,138.060 87.651,137.997 88.095 C 137.943 88.475,137.760 88.786,137.591 88.786 C 137.199 88.786,136.406 89.572,136.406 89.961 C 136.406 90.124,136.198 90.336,135.945 90.434 C 135.691 90.531,135.484 90.891,135.484 91.235 C 135.484 91.578,135.346 91.859,135.177 91.859 C 135.008 91.859,134.865 92.239,134.860 92.704 C 134.854 93.168,134.647 93.817,134.399 94.145 C 133.713 95.052,133.722 129.077,134.409 129.647 C 134.662 129.857,134.869 130.347,134.869 130.735 C 134.869 131.491,135.793 133.328,136.175 133.331 C 136.302 133.332,136.410 133.575,136.415 133.871 C 136.427 134.535,137.119 135.484,137.591 135.484 C 137.784 135.484,137.942 135.627,137.942 135.801 C 137.942 136.335,139.770 137.942,140.377 137.942 C 140.691 137.942,141.028 138.149,141.125 138.402 C 141.222 138.656,141.583 138.863,141.926 138.863 C 142.269 138.863,142.550 139.002,142.550 139.171 C 142.550 139.339,143.226 139.478,144.053 139.478 C 145.106 139.478,145.609 139.616,145.733 139.939 C 146.001 140.636,178.116 140.636,178.384 139.939 C 178.507 139.616,179.011 139.478,180.064 139.478 C 180.890 139.478,181.567 139.356,181.567 139.206 C 181.567 139.057,181.809 138.854,182.104 138.754 C 183.232 138.376,184.639 137.255,184.639 136.735 C 184.639 136.554,184.985 136.406,185.407 136.406 C 185.859 136.406,186.175 136.229,186.175 135.978 C 186.175 135.742,186.382 135.470,186.636 135.373 C 186.889 135.276,187.097 134.915,187.097 134.572 C 187.097 134.229,187.254 133.948,187.447 133.948 C 187.875 133.948,188.610 133.022,188.623 132.467 C 188.628 132.243,188.840 131.853,189.094 131.600 C 189.365 131.329,189.555 130.578,189.555 129.778 C 189.555 129.030,189.693 128.418,189.862 128.418 C 190.063 128.418,190.169 122.632,190.169 111.674 C 190.169 100.717,190.063 94.931,189.862 94.931 C 189.693 94.931,189.555 94.506,189.555 93.987 C 189.555 93.468,189.347 92.836,189.094 92.583 C 188.840 92.329,188.633 91.855,188.633 91.530 C 188.633 91.204,188.526 90.937,188.396 90.937 C 188.265 90.937,187.898 90.453,187.579 89.862 C 187.261 89.270,186.814 88.786,186.588 88.786 C 186.361 88.786,186.175 88.638,186.175 88.457 C 186.175 88.032,185.394 87.250,184.968 87.250 C 184.787 87.250,184.639 87.093,184.639 86.900 C 184.639 86.439,183.696 85.736,183.059 85.724 C 182.781 85.719,182.475 85.507,182.377 85.253 C 182.275 84.987,181.816 84.793,181.287 84.793 C 180.785 84.793,180.289 84.654,180.184 84.485 C 180.061 84.286,173.576 84.178,161.733 84.178 C 149.764 84.178,143.472 84.284,143.472 84.485 M303.456 155.358 C 303.161 155.435,302.919 155.626,302.919 155.783 C 302.919 156.217,303.412 156.123,303.840 155.607 C 304.051 155.353,304.171 155.162,304.108 155.182 C 304.045 155.201,303.752 155.280,303.456 155.358 M217.248 156.956 C 216.995 157.116,216.951 157.294,217.137 157.408 C 217.305 157.512,217.613 157.391,217.822 157.139 C 218.236 156.640,217.911 156.536,217.248 156.956 M260.522 173.407 C 260.522 174.158,260.661 174.857,260.829 174.962 C 261.019 175.079,261.137 174.555,261.137 173.597 C 261.137 172.742,260.998 172.043,260.829 172.043 C 260.661 172.043,260.522 172.657,260.522 173.407 M260.922 180.031 C 260.922 180.960,260.979 181.340,261.050 180.876 C 261.120 180.411,261.120 179.651,261.050 179.186 C 260.979 178.721,260.922 179.101,260.922 180.031 M260.522 201.382 C 260.522 201.805,260.661 202.151,260.829 202.151 C 260.998 202.151,261.137 201.805,261.137 201.382 C 261.137 200.960,260.998 200.614,260.829 200.614 C 260.661 200.614,260.522 200.960,260.522 201.382 M220.737 278.341 C 220.633 278.510,220.755 278.648,221.008 278.648 C 221.262 278.648,221.555 278.510,221.659 278.341 C 221.763 278.172,221.641 278.034,221.388 278.034 C 221.135 278.034,220.842 278.172,220.737 278.341 M277.112 278.403 C 277.112 278.538,277.838 278.632,278.725 278.613 C 280.401 278.576,280.240 278.455,278.264 278.267 C 277.631 278.207,277.112 278.268,277.112 278.403 M280.645 278.341 C 280.750 278.510,281.518 278.648,282.353 278.648 C 283.188 278.648,283.871 278.510,283.871 278.341 C 283.871 278.172,283.102 278.034,282.163 278.034 C 281.103 278.034,280.527 278.150,280.645 278.341 M231.106 278.569 C 232.247 278.628,234.113 278.628,235.253 278.569 C 236.394 278.510,235.461 278.461,233.180 278.461 C 230.899 278.461,229.965 278.510,231.106 278.569 M264.913 278.569 C 266.061 278.628,267.858 278.628,268.907 278.568 C 269.956 278.508,269.017 278.460,266.820 278.460 C 264.624 278.461,263.765 278.510,264.913 278.569 " stroke="none" fill="#046c4c" fill-rule="evenodd"></path><path id="path2" d="M214.439 84.485 C 214.439 84.654,214.108 84.793,213.704 84.793 C 213.300 84.793,212.889 85.000,212.792 85.253 C 212.695 85.507,212.334 85.714,211.991 85.714 C 211.648 85.714,211.367 85.853,211.367 86.022 C 211.367 86.190,211.168 86.329,210.924 86.329 C 210.680 86.329,210.265 86.636,210.002 87.012 C 209.739 87.387,209.524 87.576,209.524 87.431 C 209.524 87.286,209.216 87.566,208.839 88.054 C 208.463 88.541,208.013 89.108,207.841 89.313 C 207.668 89.519,207.354 89.893,207.143 90.145 C 206.932 90.398,206.759 90.886,206.759 91.231 C 206.759 91.584,206.557 91.859,206.298 91.859 C 205.978 91.859,205.837 92.181,205.837 92.916 C 205.837 93.497,205.699 94.058,205.530 94.163 C 205.331 94.286,205.223 100.612,205.223 112.135 C 205.223 123.659,205.331 129.984,205.530 130.108 C 205.699 130.212,205.837 130.635,205.837 131.047 C 205.837 131.509,206.014 131.797,206.298 131.797 C 206.585 131.797,206.759 132.087,206.759 132.565 C 206.759 132.988,206.897 133.333,207.066 133.333 C 207.235 133.333,207.373 133.590,207.373 133.905 C 207.373 134.219,207.719 134.736,208.141 135.053 C 208.564 135.370,208.909 135.804,208.909 136.018 C 208.909 136.231,209.117 136.406,209.370 136.406 C 209.624 136.406,209.831 136.522,209.831 136.664 C 209.831 136.807,210.349 137.187,210.983 137.509 C 211.617 137.832,212.246 138.268,212.381 138.479 C 212.516 138.690,212.896 138.863,213.226 138.863 C 213.555 138.863,213.825 139.002,213.825 139.171 C 213.825 139.339,214.501 139.478,215.328 139.478 C 216.381 139.478,216.884 139.616,217.008 139.939 C 217.276 140.636,249.084 140.636,249.351 139.939 C 249.475 139.616,249.979 139.478,251.031 139.478 C 251.858 139.478,252.535 139.339,252.535 139.171 C 252.535 139.002,252.796 138.863,253.117 138.863 C 253.437 138.863,254.142 138.449,254.685 137.942 C 255.228 137.435,255.794 137.020,255.943 137.020 C 256.456 137.020,257.450 135.961,257.450 135.416 C 257.450 135.115,257.588 134.869,257.757 134.869 C 257.926 134.869,258.065 134.662,258.065 134.409 C 258.065 134.155,258.272 133.948,258.525 133.948 C 258.784 133.948,258.986 133.674,258.986 133.324 C 258.986 132.980,259.174 132.628,259.403 132.540 C 259.632 132.452,259.987 131.799,260.192 131.090 C 260.397 130.381,260.693 129.376,260.850 128.857 C 261.249 127.543,261.229 95.639,260.829 95.392 C 260.661 95.287,260.522 94.657,260.522 93.991 C 260.522 93.325,260.384 92.780,260.215 92.780 C 260.046 92.780,259.908 92.521,259.908 92.204 C 259.908 91.886,259.700 91.455,259.447 91.244 C 259.194 91.034,258.986 90.622,258.986 90.328 C 258.986 90.034,258.641 89.535,258.218 89.217 C 257.796 88.900,257.450 88.466,257.450 88.253 C 257.450 88.039,257.302 87.865,257.121 87.865 C 256.696 87.865,255.914 87.083,255.914 86.658 C 255.914 86.477,255.707 86.329,255.453 86.329 C 255.200 86.329,254.992 86.190,254.992 86.022 C 254.992 85.853,254.661 85.714,254.257 85.714 C 253.853 85.714,253.442 85.507,253.345 85.253 C 253.233 84.962,252.762 84.793,252.065 84.793 C 251.408 84.793,251.039 84.668,251.152 84.485 C 251.278 84.282,245.113 84.178,232.891 84.178 C 220.795 84.178,214.439 84.284,214.439 84.485 M133.948 201.785 C 133.948 202.090,134.163 202.609,134.426 202.937 C 134.881 203.505,134.887 203.500,134.556 202.818 C 134.364 202.424,134.283 201.906,134.375 201.666 C 134.467 201.425,134.409 201.229,134.245 201.229 C 134.082 201.229,133.948 201.479,133.948 201.785 M137.019 208.447 C 137.415 208.869,137.796 209.157,137.866 209.087 C 138.017 208.936,136.803 207.680,136.506 207.680 C 136.392 207.680,136.623 208.026,137.019 208.447 M179.877 212.596 C 179.773 212.765,179.895 212.903,180.148 212.903 C 180.402 212.903,180.694 212.765,180.799 212.596 C 180.903 212.427,180.781 212.289,180.528 212.289 C 180.274 212.289,179.982 212.427,179.877 212.596 M114.900 278.361 C 117.252 278.676,129.954 278.705,129.954 278.395 C 129.954 278.255,126.187 278.140,121.582 278.138 C 116.681 278.136,113.911 278.228,114.900 278.361 M135.484 278.362 C 134.217 278.459,140.772 278.562,150.051 278.593 C 159.331 278.623,166.839 278.564,166.736 278.461 C 166.495 278.220,138.521 278.132,135.484 278.362 M169.892 278.341 C 169.892 278.738,174.194 278.738,174.808 278.341 C 175.125 278.136,174.430 278.042,172.581 278.038 C 170.990 278.036,169.892 278.159,169.892 278.341 " stroke="none" fill="#fc6b0c" fill-rule="evenodd"></path><path id="path3" d="M88.124 155.664 C 87.940 155.886,87.528 156.068,87.209 156.068 C 86.591 156.068,85.557 156.578,84.845 157.234 C 84.607 157.454,84.329 157.550,84.227 157.448 C 84.126 157.346,84.246 157.120,84.494 156.946 C 84.851 156.695,84.806 156.659,84.278 156.774 C 83.799 156.879,83.656 156.799,83.773 156.494 C 83.977 155.962,83.645 155.942,83.133 156.454 C 82.920 156.667,82.801 157.047,82.867 157.299 C 82.950 157.614,82.844 157.579,82.529 157.190 C 82.038 156.583,80.191 157.262,80.180 158.054 C 80.177 158.229,80.027 158.164,79.846 157.911 C 79.580 157.538,79.545 157.579,79.663 158.121 C 79.753 158.533,79.636 158.859,79.363 158.964 C 79.117 159.058,78.988 159.252,79.076 159.394 C 79.164 159.536,79.040 159.652,78.802 159.652 C 78.563 159.652,78.439 159.537,78.526 159.396 C 78.613 159.255,78.396 159.140,78.042 159.140 C 77.689 159.140,77.324 159.338,77.231 159.581 C 77.138 159.824,76.883 159.954,76.665 159.871 C 76.080 159.646,75.848 161.240,76.419 161.560 C 76.808 161.777,76.800 161.841,76.362 162.009 C 76.081 162.117,75.913 162.103,75.989 161.978 C 76.276 161.503,75.414 161.065,75.021 161.487 C 74.582 161.956,74.583 162.216,75.025 162.750 C 75.348 163.138,74.819 163.298,73.734 163.139 C 73.361 163.085,73.376 163.184,73.811 163.665 C 74.375 164.288,74.504 164.694,74.117 164.633 C 73.154 164.481,72.283 164.770,71.920 165.361 C 71.507 166.034,71.511 166.038,72.100 165.515 C 73.033 164.686,73.533 164.835,72.926 165.760 C 72.644 166.191,72.261 166.492,72.074 166.428 C 71.650 166.282,70.589 167.354,70.942 167.572 C 71.434 167.877,71.576 169.034,71.099 168.851 C 70.837 168.751,70.661 168.872,70.661 169.152 C 70.661 169.410,70.543 169.549,70.399 169.460 C 70.256 169.371,70.152 169.743,70.169 170.287 C 70.193 171.052,70.328 171.264,70.770 171.227 C 71.187 171.192,71.249 171.270,71.001 171.519 C 70.814 171.706,70.661 172.116,70.661 172.430 C 70.661 172.744,70.528 172.919,70.367 172.819 C 70.205 172.719,70.158 172.400,70.261 172.110 C 70.365 171.820,70.151 171.950,69.787 172.399 C 68.950 173.430,68.930 174.009,69.739 173.797 C 70.077 173.709,70.277 173.762,70.182 173.915 C 70.087 174.068,69.825 174.194,69.598 174.194 C 69.274 174.194,69.187 175.090,69.190 178.418 C 69.192 180.741,69.259 182.296,69.339 181.874 C 69.418 181.452,69.583 181.002,69.704 180.875 C 69.825 180.748,69.841 179.881,69.738 178.949 C 69.614 177.819,69.660 177.293,69.876 177.369 C 70.228 177.492,70.229 181.904,69.877 182.757 C 69.578 183.480,69.728 187.505,70.067 187.849 C 70.224 188.010,70.353 189.883,70.353 192.012 C 70.353 194.141,70.224 196.015,70.067 196.175 C 69.745 196.502,69.572 200.514,69.849 201.229 C 70.204 202.146,70.209 206.231,69.855 206.355 C 69.613 206.440,69.577 206.108,69.733 205.252 C 69.857 204.579,69.848 203.917,69.715 203.781 C 69.582 203.644,69.418 202.980,69.350 202.304 C 69.283 201.628,69.204 202.700,69.176 204.685 C 69.144 206.921,69.241 208.295,69.432 208.295 C 69.601 208.295,69.755 209.090,69.775 210.061 C 69.805 211.515,69.853 211.665,70.046 210.906 L 70.281 209.985 70.317 210.839 C 70.338 211.342,70.164 211.766,69.892 211.870 C 69.639 211.968,69.432 212.386,69.432 212.801 C 69.432 213.273,69.558 213.476,69.772 213.344 C 70.006 213.199,70.039 213.360,69.877 213.863 C 69.586 214.767,69.583 215.005,69.847 216.058 C 70.012 216.714,69.949 216.897,69.560 216.897 C 69.125 216.897,69.083 217.240,69.235 219.585 C 69.448 222.893,69.474 223.051,69.778 222.863 C 69.913 222.780,69.886 222.353,69.719 221.913 C 69.372 221.002,69.497 220.688,69.974 221.268 C 70.151 221.483,70.372 222.350,70.465 223.195 C 70.588 224.321,70.565 224.485,70.376 223.810 C 70.164 223.049,70.112 223.008,70.082 223.579 C 70.062 223.959,69.933 224.270,69.795 224.270 C 69.458 224.270,69.447 236.840,69.783 237.047 C 69.928 237.137,70.046 237.486,70.046 237.824 C 70.046 238.162,69.931 238.368,69.790 238.280 C 69.485 238.092,69.467 238.189,69.237 241.244 C 69.081 243.313,69.123 243.625,69.558 243.625 C 69.949 243.625,70.012 243.808,69.847 244.465 C 69.583 245.517,69.586 245.755,69.877 246.659 C 70.031 247.136,70.002 247.321,69.794 247.193 C 69.331 246.906,68.948 250.330,69.393 250.776 C 69.822 251.204,69.849 252.227,69.432 252.227 C 69.249 252.227,69.124 253.366,69.124 255.030 C 69.124 257.362,69.195 257.774,69.543 257.485 C 69.847 257.233,69.900 256.795,69.736 255.898 C 69.578 255.032,69.613 254.694,69.855 254.773 C 70.493 254.982,70.423 256.804,69.734 257.919 C 69.371 258.506,69.224 258.986,69.407 258.986 C 69.589 258.986,69.741 258.813,69.744 258.602 C 69.747 258.346,69.848 258.372,70.046 258.679 C 70.210 258.932,70.344 259.278,70.344 259.447 C 70.344 259.616,70.210 259.547,70.046 259.293 C 69.725 258.797,69.676 258.925,69.616 260.423 C 69.587 261.144,69.672 261.320,69.941 261.097 C 70.209 260.874,70.258 260.973,70.127 261.474 C 70.014 261.905,70.067 262.082,70.270 261.956 C 70.447 261.847,70.779 261.988,71.010 262.269 C 71.382 262.722,71.351 262.759,70.737 262.601 C 69.864 262.376,69.750 263.595,70.584 264.248 C 71.080 264.637,71.087 264.623,70.677 264.055 C 70.242 263.453,70.245 263.452,70.831 264.015 C 71.255 264.423,71.317 264.631,71.045 264.732 C 70.506 264.932,70.564 266.257,71.121 266.471 C 71.375 266.568,71.583 266.963,71.583 267.348 C 71.584 267.779,71.927 268.279,72.473 268.645 C 72.962 268.972,73.292 269.422,73.207 269.643 C 73.101 269.920,73.340 270.046,73.974 270.046 C 74.545 270.046,74.969 270.238,75.089 270.550 C 75.245 270.955,75.198 270.984,74.851 270.696 C 74.513 270.416,74.378 270.445,74.229 270.831 C 73.962 271.529,73.982 271.582,74.519 271.582 C 74.782 271.582,74.912 271.720,74.808 271.889 C 74.704 272.058,74.754 272.197,74.921 272.197 C 75.087 272.197,75.297 272.439,75.387 272.734 C 75.477 273.030,75.511 272.823,75.463 272.273 C 75.411 271.682,75.517 271.275,75.724 271.275 C 75.918 271.275,76.045 271.673,76.010 272.177 C 75.952 273.015,76.001 273.058,76.701 272.792 C 77.144 272.624,77.383 272.621,77.281 272.786 C 77.186 272.940,77.213 273.124,77.341 273.195 C 77.468 273.267,77.388 273.278,77.161 273.221 C 76.355 273.016,76.148 273.494,76.786 274.088 C 77.139 274.417,77.548 274.611,77.694 274.521 C 77.841 274.430,78.305 274.626,78.725 274.956 C 79.144 275.286,79.572 275.472,79.675 275.369 C 79.778 275.266,80.307 275.616,80.850 276.147 C 81.801 277.077,82.306 277.245,83.794 277.124 C 84.217 277.090,84.485 277.240,84.485 277.511 C 84.485 278.172,90.703 278.780,91.305 278.178 C 91.563 277.920,108.756 277.854,108.756 278.111 C 108.756 278.237,109.801 278.341,111.078 278.341 C 112.355 278.341,113.336 278.237,113.258 278.111 C 113.180 277.984,113.919 277.880,114.900 277.880 C 115.882 277.880,116.629 277.971,116.560 278.082 C 116.492 278.193,116.678 278.224,116.973 278.151 C 117.953 277.910,122.889 277.876,122.888 278.111 C 122.888 278.237,123.587 278.341,124.442 278.341 C 125.297 278.341,125.929 278.231,125.846 278.097 C 125.763 277.963,126.619 277.911,127.748 277.982 C 128.877 278.053,129.883 278.241,129.985 278.400 C 130.216 278.762,137.634 278.365,137.634 277.990 C 137.634 277.618,143.394 277.660,143.625 278.034 C 143.742 278.222,146.234 278.341,150.077 278.341 C 153.920 278.341,156.412 278.222,156.528 278.034 C 156.759 277.660,162.119 277.619,162.263 277.990 C 162.447 278.463,169.892 278.749,169.892 278.283 C 169.893 277.975,170.652 277.887,173.134 277.908 C 174.944 277.923,176.199 277.824,175.976 277.682 C 175.699 277.507,175.794 277.427,176.285 277.424 C 176.753 277.421,176.928 277.550,176.800 277.803 C 176.693 278.015,176.802 277.948,177.043 277.655 C 177.283 277.361,177.570 277.212,177.680 277.322 C 177.790 277.432,177.880 277.300,177.880 277.028 C 177.880 276.756,178.017 276.449,178.184 276.346 C 178.351 276.243,178.419 276.339,178.334 276.559 C 178.234 276.819,178.440 276.959,178.926 276.959 C 179.337 276.959,179.649 276.824,179.621 276.659 C 179.593 276.494,179.883 276.311,180.266 276.253 C 180.648 276.194,180.882 276.018,180.785 275.861 C 180.688 275.704,180.755 275.559,180.934 275.538 C 181.113 275.517,181.398 275.465,181.567 275.422 C 181.736 275.380,182.012 275.328,182.181 275.307 C 182.350 275.286,182.488 275.053,182.488 274.790 C 182.488 274.526,182.617 274.390,182.774 274.488 C 182.932 274.585,183.147 274.524,183.253 274.352 C 183.360 274.180,183.715 274.040,184.043 274.040 C 184.715 274.040,184.809 273.718,184.288 273.197 C 184.024 272.933,184.098 272.888,184.584 273.015 C 184.958 273.113,185.431 272.985,185.703 272.712 C 186.359 272.057,186.293 271.805,185.568 272.193 C 185.072 272.458,184.993 272.432,185.140 272.050 C 185.238 271.793,185.457 271.582,185.626 271.582 C 185.795 271.582,185.854 271.375,185.757 271.121 C 185.636 270.806,185.774 270.661,186.194 270.661 C 186.532 270.661,186.884 270.464,186.976 270.224 C 187.083 269.947,187.429 269.840,187.928 269.930 C 188.594 270.051,188.687 269.978,188.547 269.444 C 188.457 269.099,188.508 268.894,188.662 268.989 C 188.815 269.083,188.940 268.937,188.940 268.664 C 188.940 268.366,189.082 268.255,189.295 268.386 C 189.505 268.516,189.566 268.471,189.446 268.275 C 189.333 268.094,189.460 267.727,189.727 267.459 C 189.994 267.192,190.120 266.974,190.007 266.974 C 189.894 266.974,190.084 266.494,190.430 265.908 C 191.043 264.869,191.074 264.396,190.611 263.134 C 190.426 262.629,190.459 262.588,190.800 262.903 C 191.027 263.114,191.292 263.287,191.387 263.287 C 191.752 263.287,191.531 261.102,191.142 260.861 C 190.814 260.659,190.832 260.569,191.232 260.416 C 191.629 260.263,191.664 260.098,191.400 259.605 C 191.176 259.187,191.172 258.986,191.387 258.986 C 191.878 258.986,191.763 256.903,191.228 256.085 C 190.865 255.531,190.839 255.301,191.121 255.127 C 191.373 254.971,191.413 255.027,191.244 255.300 C 191.080 255.566,191.116 255.628,191.350 255.482 C 191.545 255.362,191.705 254.918,191.705 254.495 C 191.705 253.993,191.582 253.803,191.350 253.946 C 191.108 254.096,191.081 254.030,191.265 253.734 C 191.663 253.095,191.755 252.160,191.399 252.380 C 191.229 252.485,191.091 252.367,191.091 252.117 C 191.091 251.868,190.918 251.594,190.707 251.509 C 190.399 251.385,190.399 251.349,190.707 251.330 C 191.171 251.301,191.228 250.384,190.765 250.384 C 190.586 250.384,190.527 250.242,190.635 250.069 C 190.742 249.896,190.715 249.774,190.576 249.798 C 189.830 249.928,189.504 249.730,189.686 249.257 C 189.794 248.974,189.706 248.631,189.488 248.493 C 189.169 248.291,189.171 248.242,189.496 248.238 C 189.717 248.236,189.811 248.093,189.705 247.921 C 189.599 247.750,189.349 247.707,189.149 247.827 C 188.950 247.946,188.982 247.803,189.221 247.509 C 189.606 247.035,189.582 246.954,189.017 246.806 C 188.665 246.715,188.294 246.307,188.192 245.900 C 188.090 245.494,187.863 245.161,187.687 245.161 C 187.512 245.161,187.446 245.035,187.541 244.881 C 187.771 244.509,185.415 242.656,185.076 242.942 C 184.931 243.064,185.009 242.910,185.248 242.598 C 185.657 242.067,185.615 242.043,184.577 242.207 C 183.482 242.382,182.637 241.718,183.504 241.365 C 183.706 241.283,183.629 241.205,183.333 241.192 C 183.038 241.178,182.796 241.019,182.796 240.838 C 182.796 240.657,182.561 240.277,182.275 239.993 C 181.788 239.511,181.768 239.512,181.958 240.015 C 182.298 240.913,181.574 240.616,181.015 239.628 C 180.666 239.011,180.287 238.730,179.877 238.783 C 179.519 238.830,179.295 238.703,179.339 238.479 C 179.384 238.255,179.101 238.095,178.658 238.095 C 178.070 238.095,177.941 238.216,178.085 238.633 C 178.238 239.076,178.188 239.065,177.801 238.568 C 177.388 238.036,177.265 238.016,176.761 238.399 C 176.282 238.764,176.252 238.764,176.575 238.403 C 177.081 237.835,177.059 237.585,176.482 237.364 C 176.210 237.259,176.085 237.310,176.191 237.482 C 176.294 237.648,176.228 238.026,176.046 238.323 C 175.797 238.729,175.725 238.749,175.758 238.402 C 175.862 237.318,175.718 237.186,174.501 237.256 C 173.825 237.295,173.271 237.465,173.270 237.634 C 173.268 237.803,172.928 238.099,172.513 238.291 C 172.098 238.484,171.770 238.553,171.784 238.445 C 171.951 237.131,173.022 237.196,152.151 237.257 L 132.565 237.314 151.767 237.479 L 170.968 237.644 151.613 237.639 C 134.615 237.635,132.258 237.578,132.258 237.174 C 132.258 236.350,130.639 236.403,130.480 237.232 C 130.359 237.866,130.340 237.874,130.303 237.304 C 130.254 236.560,125.328 236.276,124.424 236.965 C 124.171 237.158,124.226 237.008,124.548 236.631 C 125.036 236.059,125.055 235.945,124.658 235.945 C 124.396 235.945,124.097 236.168,123.992 236.440 C 123.838 236.841,123.715 236.863,123.345 236.556 C 122.980 236.254,122.888 236.257,122.888 236.573 C 122.888 236.791,122.799 236.880,122.690 236.771 C 122.582 236.663,122.668 236.363,122.882 236.106 C 123.203 235.719,123.184 235.637,122.772 235.637 C 122.498 235.637,122.290 235.741,122.310 235.868 C 122.403 236.461,122.247 236.886,121.992 236.729 C 121.838 236.633,121.641 236.729,121.556 236.941 C 121.452 237.200,121.392 237.170,121.376 236.851 C 121.363 236.589,121.522 236.205,121.729 235.997 C 122.028 235.699,121.965 235.642,121.430 235.723 C 121.058 235.780,120.657 235.922,120.540 236.039 C 120.213 236.367,119.755 236.291,119.969 235.945 C 120.074 235.776,119.946 235.637,119.686 235.637 C 119.426 235.637,119.126 235.292,119.020 234.869 C 118.914 234.447,118.618 234.101,118.362 234.101 C 117.964 234.101,117.958 234.176,118.319 234.621 C 118.554 234.912,118.581 235.045,118.380 234.925 C 118.170 234.799,117.953 234.935,117.862 235.250 C 117.731 235.701,117.708 235.689,117.720 235.177 C 117.754 233.841,117.640 233.552,117.018 233.389 C 116.662 233.296,116.019 233.354,115.589 233.517 C 114.909 233.776,114.859 233.754,115.196 233.347 C 115.410 233.090,115.730 232.970,115.909 233.080 C 116.114 233.207,116.158 233.083,116.028 232.744 C 115.914 232.449,115.820 232.115,115.817 232.003 C 115.815 231.890,115.678 232.005,115.515 232.258 C 115.232 232.695,115.035 232.122,115.171 231.260 C 115.232 230.875,114.829 231.000,114.180 231.567 C 113.842 231.863,113.661 231.942,113.777 231.743 C 113.900 231.530,113.732 231.300,113.369 231.184 C 113.028 231.076,112.750 230.851,112.750 230.683 C 112.750 230.516,112.611 230.464,112.442 230.568 C 112.273 230.673,112.135 230.685,112.135 230.596 C 112.135 230.507,112.515 230.214,112.980 229.944 C 113.445 229.675,113.596 229.523,113.315 229.607 C 112.810 229.758,112.258 228.619,112.406 227.727 C 112.441 227.515,112.333 227.343,112.166 227.343 C 112.000 227.343,111.916 227.066,111.982 226.728 C 112.047 226.390,111.935 226.112,111.734 226.109 C 111.492 226.106,111.511 226.013,111.791 225.836 C 112.365 225.472,111.947 224.884,111.119 224.889 C 110.571 224.893,110.532 224.950,110.906 225.192 C 111.183 225.371,111.221 225.492,111.001 225.495 C 110.412 225.502,110.209 224.897,110.733 224.696 C 111.260 224.494,111.399 223.656,110.906 223.656 C 110.737 223.656,110.599 223.510,110.599 223.331 C 110.599 223.152,110.706 223.072,110.838 223.153 C 111.122 223.328,111.277 221.036,111.048 220.034 C 110.960 219.646,110.789 219.390,110.667 219.464 C 110.545 219.537,110.399 217.988,110.342 216.020 C 110.266 213.402,110.116 212.305,109.781 211.932 C 109.516 211.635,109.379 211.056,109.455 210.549 C 109.581 209.704,109.587 209.708,109.631 210.676 C 109.662 211.338,109.833 211.674,110.138 211.674 C 110.524 211.674,110.599 211.024,110.599 207.662 C 110.599 205.066,110.491 203.717,110.292 203.840 C 110.089 203.966,109.985 200.048,109.985 192.320 C 109.985 184.591,110.089 180.673,110.292 180.799 C 110.820 181.125,110.666 175.964,110.108 174.629 C 109.733 173.731,109.716 173.536,110.037 173.802 C 110.429 174.128,110.574 172.899,110.342 171.219 C 110.293 170.863,109.135 170.325,108.679 170.446 C 108.363 170.529,108.534 169.788,108.890 169.532 C 109.059 169.410,109.010 169.124,108.769 168.834 C 108.419 168.411,108.436 168.371,108.891 168.545 C 109.220 168.672,109.363 168.964,109.270 169.320 C 109.188 169.635,109.246 169.892,109.399 169.892 C 109.817 169.892,109.736 169.182,109.194 168.096 C 108.688 167.081,107.687 166.693,108.056 167.655 C 108.235 168.123,108.203 168.131,107.773 167.732 C 107.472 167.452,107.406 167.207,107.599 167.086 C 107.771 166.978,107.951 166.528,107.999 166.086 C 108.048 165.643,107.959 165.361,107.802 165.458 C 107.645 165.554,107.596 165.763,107.694 165.920 C 107.992 166.403,107.627 166.237,107.180 165.686 C 106.894 165.333,106.882 165.240,107.143 165.397 C 107.354 165.524,107.527 165.489,107.527 165.320 C 107.527 165.151,107.395 164.932,107.233 164.832 C 107.071 164.732,107.019 164.441,107.117 164.187 C 107.229 163.895,107.138 163.756,106.873 163.812 C 106.641 163.861,106.486 163.729,106.528 163.518 C 106.571 163.306,106.490 163.134,106.349 163.134 C 105.830 163.134,105.700 163.552,106.070 164.027 C 106.399 164.449,106.384 164.464,105.963 164.135 C 105.694 163.925,105.382 163.844,105.271 163.956 C 105.062 164.165,104.963 163.653,105.047 162.787 C 105.098 162.257,104.281 161.786,103.813 162.076 C 103.659 162.171,103.533 162.167,103.533 162.067 C 103.533 161.967,103.844 161.760,104.224 161.607 C 104.880 161.344,104.870 161.328,104.037 161.310 C 103.268 161.293,103.182 161.199,103.343 160.557 C 103.521 159.850,103.168 159.559,101.843 159.321 C 101.674 159.290,101.582 159.064,101.639 158.819 C 101.695 158.573,101.641 158.471,101.520 158.593 C 101.398 158.715,100.916 158.542,100.448 158.209 C 99.980 157.876,99.300 157.604,98.936 157.604 C 98.572 157.604,98.354 157.475,98.451 157.318 C 98.548 157.160,98.466 156.932,98.268 156.809 C 98.027 156.660,97.991 156.721,98.160 156.994 C 98.341 157.288,98.272 157.347,97.908 157.208 C 97.603 157.091,97.275 157.222,97.075 157.540 C 96.806 157.968,96.783 157.923,96.951 157.296 C 97.065 156.874,97.051 156.630,96.920 156.754 C 96.789 156.878,96.499 156.740,96.277 156.447 C 96.006 156.091,95.869 156.047,95.862 156.316 C 95.857 156.539,95.696 156.621,95.501 156.501 C 94.898 156.128,93.436 156.067,92.612 156.380 C 92.179 156.545,91.899 156.558,91.991 156.409 C 92.543 155.515,88.840 154.802,88.124 155.664 M146.387 157.122 C 145.859 157.521,145.846 157.585,146.295 157.594 C 146.581 157.599,146.886 157.718,146.972 157.859 C 147.166 158.173,146.216 158.125,145.680 157.793 C 145.464 157.660,145.099 157.708,144.868 157.899 C 144.600 158.122,144.380 158.138,144.261 157.945 C 143.919 157.393,142.807 157.684,142.964 158.285 C 143.123 158.895,142.674 159.051,142.475 158.455 C 142.376 158.157,142.191 158.159,141.605 158.464 C 141.195 158.677,141.102 158.783,141.398 158.698 C 141.694 158.614,141.935 158.679,141.935 158.842 C 141.935 159.006,141.680 159.140,141.368 159.140 C 141.056 159.140,140.676 159.413,140.523 159.746 C 140.318 160.194,140.125 160.276,139.785 160.058 C 139.392 159.807,139.403 159.763,139.862 159.759 C 140.157 159.756,140.399 159.616,140.399 159.447 C 140.399 158.912,139.838 159.114,139.337 159.829 C 139.052 160.236,138.982 160.562,139.166 160.623 C 139.337 160.680,139.478 160.859,139.478 161.020 C 139.478 161.187,139.199 161.163,138.826 160.963 C 138.468 160.771,138.243 160.732,138.326 160.876 C 138.409 161.019,138.197 161.413,137.855 161.751 C 137.513 162.089,137.345 162.171,137.481 161.934 C 137.649 161.642,137.613 161.574,137.370 161.725 C 137.172 161.847,137.102 162.097,137.216 162.280 C 137.329 162.463,137.191 162.781,136.909 162.987 C 136.388 163.368,136.363 164.146,136.844 164.977 C 137.060 165.352,137.033 165.366,136.696 165.054 C 136.216 164.608,135.362 164.532,135.626 164.958 C 135.724 165.117,135.573 165.376,135.290 165.534 C 134.856 165.777,134.824 166.013,135.084 167.038 C 135.321 167.973,135.303 168.254,135.007 168.254 C 134.794 168.254,134.686 168.035,134.765 167.768 C 134.844 167.500,134.710 167.627,134.467 168.049 C 134.006 168.851,133.966 169.791,134.364 170.436 C 134.493 170.644,134.481 170.814,134.337 170.814 C 134.193 170.814,134.061 177.657,134.043 186.020 C 134.025 194.898,134.127 201.155,134.287 201.055 C 134.639 200.838,134.633 201.002,134.256 201.994 C 134.028 202.593,134.042 202.743,134.308 202.579 C 134.551 202.428,134.601 202.527,134.464 202.884 C 134.344 203.197,134.385 203.335,134.566 203.224 C 134.744 203.113,134.869 203.487,134.869 204.129 C 134.869 205.410,135.214 205.532,135.791 204.455 C 136.017 204.033,136.267 203.753,136.347 203.833 C 136.428 203.913,136.320 204.188,136.108 204.443 C 135.896 204.699,135.805 205.124,135.907 205.388 C 136.008 205.653,135.978 205.799,135.839 205.713 C 135.700 205.627,135.586 205.751,135.586 205.987 C 135.586 206.224,135.733 206.391,135.912 206.358 C 136.091 206.325,136.285 206.610,136.343 206.991 C 136.427 207.539,136.605 207.656,137.195 207.549 C 137.701 207.458,137.942 207.556,137.942 207.854 C 137.942 208.396,137.435 208.436,137.223 207.911 C 137.102 207.610,137.063 207.612,137.044 207.921 C 137.031 208.137,137.227 208.394,137.481 208.491 C 137.734 208.588,137.942 208.791,137.942 208.942 C 137.942 209.386,139.019 210.334,139.736 210.522 C 140.101 210.617,140.399 210.570,140.399 210.417 C 140.399 210.264,140.515 210.138,140.655 210.138 C 140.796 210.138,140.911 210.340,140.911 210.586 C 140.911 210.832,140.806 210.968,140.677 210.888 C 140.547 210.808,140.364 210.868,140.269 211.022 C 140.174 211.176,140.441 211.388,140.862 211.494 C 141.284 211.600,141.628 211.822,141.628 211.987 C 141.628 212.430,143.390 212.356,143.597 211.905 C 143.694 211.694,143.696 211.832,143.602 212.212 C 143.504 212.604,143.572 212.903,143.758 212.903 C 143.938 212.903,144.088 212.730,144.091 212.519 C 144.094 212.259,144.201 212.283,144.423 212.596 C 144.674 212.950,144.711 212.843,144.584 212.135 C 144.492 211.628,144.493 211.387,144.585 211.599 C 144.677 211.812,144.901 211.894,145.081 211.782 C 145.276 211.662,145.320 211.724,145.190 211.935 C 145.056 212.152,145.285 212.409,145.777 212.597 C 146.820 212.993,146.932 212.983,146.670 212.519 C 146.497 212.212,146.536 212.212,146.867 212.519 C 147.444 213.055,177.106 213.084,176.776 212.549 C 176.625 212.306,176.692 212.279,176.988 212.463 C 177.686 212.899,178.248 212.889,178.077 212.444 C 177.990 212.218,178.129 211.952,178.386 211.853 C 179.193 211.544,179.416 211.654,179.427 212.366 L 179.437 213.057 180.015 212.364 C 180.423 211.875,180.646 211.784,180.773 212.057 C 180.916 212.365,180.988 212.365,181.132 212.058 C 181.230 211.847,181.610 211.663,181.976 211.650 C 182.343 211.637,182.468 211.556,182.256 211.470 C 182.044 211.385,181.953 211.181,182.053 211.019 C 182.169 210.832,182.377 210.840,182.618 211.040 C 183.025 211.378,184.632 210.829,184.637 210.351 C 184.638 210.214,184.530 210.169,184.398 210.251 C 184.265 210.333,184.156 210.144,184.156 209.831 C 184.156 209.515,184.298 209.350,184.474 209.461 C 184.925 209.743,185.552 209.812,185.486 209.572 C 185.455 209.461,185.593 209.077,185.792 208.719 C 185.991 208.361,186.066 207.981,185.959 207.874 C 185.853 207.768,185.915 207.680,186.098 207.680 C 186.281 207.680,186.480 207.827,186.540 208.006 C 186.599 208.185,186.991 207.955,187.410 207.496 C 187.829 207.036,187.999 206.759,187.788 206.881 C 187.020 207.323,187.430 206.394,188.479 205.314 C 189.578 204.183,189.973 203.272,189.035 204.033 C 188.682 204.320,188.589 204.332,188.746 204.071 C 188.873 203.859,188.840 203.687,188.672 203.687 C 188.505 203.687,188.308 203.998,188.235 204.378 L 188.102 205.069 188.060 204.370 C 188.031 203.886,188.255 203.582,188.789 203.379 C 189.212 203.217,189.534 202.979,189.503 202.849 C 189.472 202.718,189.638 202.218,189.871 201.737 C 190.248 200.960,190.236 200.830,189.764 200.566 C 189.473 200.403,189.306 200.154,189.393 200.013 C 189.480 199.872,189.344 199.678,189.092 199.581 C 188.286 199.272,188.528 198.157,189.401 198.157 L 190.169 198.157 190.169 189.708 C 190.169 184.281,190.059 181.260,189.862 181.260 C 189.693 181.260,189.555 180.845,189.555 180.338 C 189.555 179.831,189.682 179.416,189.838 179.416 C 189.993 179.416,190.128 178.310,190.137 176.959 C 190.147 175.459,190.029 174.501,189.835 174.501 C 189.633 174.501,189.591 174.994,189.719 175.847 C 189.847 176.701,189.798 177.269,189.584 177.401 C 189.202 177.637,189.196 177.589,189.116 173.612 C 189.067 171.193,189.138 170.705,189.550 170.597 C 190.198 170.428,190.306 168.853,189.703 168.352 C 189.305 168.021,189.262 168.050,189.423 168.543 C 189.573 169.004,189.547 169.032,189.297 168.678 C 189.123 168.433,189.071 168.087,189.182 167.910 C 189.525 167.362,189.530 166.734,189.195 166.109 C 188.944 165.639,188.819 165.598,188.620 165.919 C 188.480 166.145,188.428 166.431,188.505 166.554 C 188.581 166.677,188.518 166.855,188.366 166.949 C 188.213 167.043,188.016 166.846,187.929 166.510 C 187.841 166.174,187.878 165.899,188.012 165.899 C 188.146 165.899,188.317 165.484,188.391 164.977 C 188.466 164.470,188.412 164.055,188.272 164.055 C 188.133 164.055,188.018 163.848,188.018 163.594 C 188.018 163.341,187.872 163.134,187.693 163.134 C 187.514 163.134,187.467 162.961,187.589 162.750 C 187.710 162.538,187.702 162.463,187.570 162.581 C 187.291 162.833,186.732 162.331,186.213 161.361 C 186.011 160.984,185.575 160.676,185.243 160.676 C 184.892 160.676,184.639 160.468,184.639 160.179 C 184.639 159.834,184.452 159.731,184.024 159.843 C 183.686 159.932,183.477 159.894,183.561 159.759 C 183.939 159.148,181.030 157.946,180.637 158.551 C 180.548 158.688,180.272 158.671,180.023 158.514 C 179.639 158.271,179.649 158.227,180.089 158.223 C 180.375 158.220,180.684 158.096,180.776 157.947 C 180.869 157.798,180.497 157.714,179.950 157.761 C 179.367 157.811,178.461 157.573,177.762 157.187 C 176.725 156.615,176.530 156.589,176.277 156.989 C 176.031 157.378,175.421 157.415,172.401 157.227 C 163.990 156.703,147.032 156.635,146.387 157.122 M171.198 156.908 C 172.001 156.971,173.314 156.971,174.117 156.908 C 174.919 156.845,174.263 156.793,172.657 156.793 C 171.052 156.793,170.396 156.845,171.198 156.908 M160.156 157.219 C 158.096 157.272,154.640 157.272,152.476 157.219 C 150.311 157.166,151.997 157.123,156.221 157.122 C 160.445 157.122,162.216 157.166,160.156 157.219 M98.404 157.800 C 98.731 158.127,98.321 158.510,97.841 158.326 C 97.594 158.231,97.469 158.030,97.562 157.879 C 97.761 157.556,98.127 157.522,98.404 157.800 M82.309 158.023 C 81.690 158.565,80.682 158.889,81.067 158.422 C 81.299 158.141,81.702 157.911,81.963 157.911 C 82.224 157.911,82.380 157.961,82.309 158.023 M184.793 161.290 C 184.688 161.459,184.757 161.598,184.946 161.598 C 185.135 161.598,185.197 161.748,185.083 161.932 C 184.946 162.154,184.774 162.163,184.570 161.958 C 184.287 161.676,184.471 160.983,184.829 160.983 C 184.913 160.983,184.897 161.121,184.793 161.290 M110.292 176.498 C 110.292 177.326,110.168 177.567,109.754 177.549 C 109.433 177.534,109.371 177.462,109.601 177.369 C 109.812 177.284,109.985 176.811,109.985 176.318 C 109.985 175.826,110.054 175.422,110.138 175.422 C 110.223 175.422,110.292 175.906,110.292 176.498 M188.861 183.628 C 188.802 184.775,188.753 183.917,188.752 181.720 C 188.752 179.524,188.800 178.585,188.860 179.634 C 188.920 180.683,188.920 182.480,188.861 183.628 M109.600 198.233 C 109.550 201.486,109.510 198.825,109.510 192.320 C 109.510 185.814,109.550 183.153,109.600 186.406 C 109.650 189.658,109.650 194.981,109.600 198.233 M189.777 184.096 C 189.709 184.648,189.651 184.270,189.650 183.257 C 189.648 182.243,189.704 181.791,189.774 182.253 C 189.844 182.714,189.846 183.544,189.777 184.096 M69.247 191.859 C 69.248 194.393,69.295 195.389,69.353 194.072 C 69.411 192.755,69.410 190.681,69.352 189.464 C 69.294 188.246,69.247 189.324,69.247 191.859 M188.940 198.851 C 188.940 199.106,189.217 199.386,189.555 199.475 C 190.010 199.594,190.169 199.484,190.169 199.050 C 190.169 198.727,190.023 198.464,189.844 198.464 C 189.665 198.464,189.622 198.637,189.749 198.848 C 189.906 199.109,189.813 199.097,189.460 198.810 C 189.015 198.450,188.940 198.455,188.940 198.851 M110.170 207.858 L 110.201 209.370 110.076 207.903 C 110.006 207.090,109.821 206.516,109.660 206.616 C 109.501 206.714,109.370 206.637,109.370 206.444 C 109.370 205.231,110.143 206.599,110.170 207.858 M70.565 214.670 C 70.488 214.965,70.425 214.724,70.425 214.132 C 70.425 213.541,70.488 213.299,70.565 213.594 C 70.642 213.890,70.642 214.374,70.565 214.670 M69.967 232.476 C 69.908 233.623,69.859 232.765,69.858 230.568 C 69.858 228.372,69.906 227.433,69.966 228.482 C 70.026 229.531,70.026 231.328,69.967 232.476 M70.529 238.210 C 70.416 238.964,70.142 239.732,69.920 239.916 C 69.600 240.182,69.547 240.090,69.664 239.476 C 69.746 239.049,69.934 238.625,70.083 238.533 C 70.232 238.441,70.353 237.937,70.353 237.411 C 70.353 236.886,70.439 236.543,70.544 236.647 C 70.649 236.752,70.642 237.455,70.529 238.210 M179.970 239.468 C 180.060 239.558,179.842 239.631,179.486 239.631 C 179.129 239.631,178.757 239.500,178.658 239.340 C 178.477 239.047,179.664 239.163,179.970 239.468 M187.229 246.118 C 186.927 246.606,186.519 246.405,186.566 245.791 C 186.600 245.341,186.708 245.274,187.004 245.519 C 187.220 245.698,187.321 245.968,187.229 246.118 M70.565 246.928 C 70.488 247.224,70.425 246.982,70.425 246.390 C 70.425 245.799,70.488 245.557,70.565 245.853 C 70.642 246.148,70.642 246.632,70.565 246.928 M70.244 249.947 L 70.289 251.152 70.070 249.923 L 69.852 248.694 69.691 249.770 L 69.530 250.845 69.481 249.667 C 69.447 248.847,69.548 248.528,69.816 248.616 C 70.027 248.685,70.220 249.284,70.244 249.947 M70.046 253.456 C 70.046 253.963,69.993 254.378,69.927 254.378 C 69.862 254.378,69.748 253.963,69.673 253.456 C 69.599 252.949,69.652 252.535,69.792 252.535 C 69.932 252.535,70.046 252.949,70.046 253.456 M85.568 277.419 C 85.798 277.419,86.070 277.556,86.173 277.722 C 86.291 277.915,86.107 277.932,85.669 277.770 C 85.289 277.629,84.947 277.351,84.908 277.152 C 84.870 276.953,84.909 276.931,84.995 277.104 C 85.081 277.278,85.339 277.419,85.568 277.419 M133.329 277.650 C 133.325 278.009,133.247 278.067,133.092 277.823 C 132.965 277.623,132.172 277.406,131.330 277.341 L 129.800 277.223 131.567 277.168 C 133.067 277.120,133.333 277.193,133.329 277.650 M169.201 277.332 C 168.737 277.403,167.976 277.403,167.512 277.332 C 167.047 277.262,167.427 277.204,168.356 277.204 C 169.286 277.204,169.666 277.262,169.201 277.332 M150.253 277.963 C 146.970 278.010,144.177 277.941,144.046 277.810 C 143.915 277.680,146.601 277.642,150.015 277.726 L 156.221 277.879 150.253 277.963 " stroke="none" fill="#fc9404" fill-rule="evenodd"></path><path id="path4" d="M83.764 156.517 C 83.657 156.796,83.815 156.875,84.278 156.774 C 84.806 156.659,84.851 156.695,84.494 156.946 C 84.246 157.120,84.126 157.346,84.227 157.448 C 84.329 157.550,84.626 157.419,84.888 157.157 C 85.149 156.896,85.503 156.682,85.674 156.682 C 86.611 156.682,86.081 156.213,85.093 156.168 C 84.366 156.135,83.860 156.268,83.764 156.517 M96.961 157.168 C 96.676 157.911,96.756 158.128,97.099 157.540 C 97.271 157.244,97.607 157.092,97.867 157.192 C 98.260 157.343,98.248 157.430,97.782 157.784 C 97.452 158.034,97.388 158.202,97.619 158.208 C 97.830 158.214,98.098 158.222,98.214 158.227 C 98.693 158.246,98.522 157.267,97.997 156.986 C 97.248 156.585,97.180 156.597,96.961 157.168 M165.899 156.887 C 169.241 157.207,176.037 157.429,176.037 157.220 C 176.037 157.093,175.298 156.989,174.396 156.989 C 173.493 156.989,170.901 156.937,168.635 156.872 C 166.370 156.808,165.138 156.815,165.899 156.887 M152.476 157.219 C 154.640 157.272,158.096 157.272,160.156 157.219 C 162.216 157.166,160.445 157.122,156.221 157.122 C 151.997 157.123,150.311 157.166,152.476 157.219 M145.731 157.815 C 146.037 158.121,147.159 158.160,146.972 157.859 C 146.886 157.718,146.523 157.604,146.167 157.604 C 145.811 157.604,145.615 157.699,145.731 157.815 M81.067 158.422 C 80.681 158.890,80.711 158.899,81.413 158.534 C 82.443 157.999,82.521 157.911,81.963 157.911 C 81.702 157.911,81.299 158.141,81.067 158.422 M78.727 158.935 C 78.473 159.494,78.492 159.652,78.818 159.652 C 79.048 159.652,79.164 159.536,79.076 159.394 C 78.988 159.252,79.132 159.053,79.395 158.952 C 79.658 158.851,79.797 158.644,79.704 158.493 C 79.416 158.028,79.069 158.185,78.727 158.935 M103.226 160.829 C 103.226 161.083,103.450 161.290,103.724 161.290 C 104.132 161.290,104.153 161.207,103.840 160.829 C 103.630 160.576,103.406 160.369,103.342 160.369 C 103.278 160.369,103.226 160.576,103.226 160.829 M75.685 161.055 C 75.565 161.249,75.631 161.462,75.831 161.529 C 76.031 161.595,76.117 161.775,76.023 161.927 C 75.929 162.080,76.093 162.112,76.389 161.998 C 76.770 161.852,76.809 161.753,76.524 161.658 C 76.219 161.556,76.210 161.468,76.489 161.296 C 76.756 161.130,76.727 161.019,76.380 160.886 C 76.117 160.785,75.805 160.861,75.685 161.055 M184.469 161.317 C 184.355 161.501,184.401 161.789,184.570 161.958 C 184.774 162.163,184.946 162.154,185.083 161.932 C 185.197 161.748,185.135 161.598,184.946 161.598 C 184.757 161.598,184.688 161.459,184.793 161.290 C 184.897 161.121,184.913 160.983,184.829 160.983 C 184.744 160.983,184.582 161.133,184.469 161.317 M103.657 161.952 C 103.528 162.161,103.572 162.224,103.765 162.105 C 104.273 161.791,105.100 162.232,105.047 162.787 C 104.963 163.653,105.062 164.165,105.271 163.956 C 105.382 163.844,105.694 163.925,105.963 164.135 C 106.384 164.464,106.399 164.449,106.070 164.027 C 105.861 163.758,105.780 163.447,105.891 163.336 C 106.002 163.225,105.932 163.134,105.735 163.134 C 105.538 163.134,105.398 163.030,105.425 162.903 C 105.632 161.924,104.163 161.134,103.657 161.952 M74.501 162.140 C 73.876 162.599,73.989 163.397,74.654 163.223 C 75.107 163.104,75.195 162.954,74.971 162.684 C 74.800 162.478,74.751 162.218,74.862 162.107 C 75.134 161.835,74.884 161.858,74.501 162.140 M73.329 163.946 C 72.933 164.343,73.117 164.632,73.736 164.585 C 74.076 164.559,74.310 164.404,74.255 164.239 C 74.124 163.846,73.596 163.680,73.329 163.946 M135.791 164.289 C 135.791 164.417,136.102 164.716,136.482 164.952 C 137.092 165.332,137.129 165.329,136.792 164.921 C 136.582 164.667,136.502 164.369,136.613 164.257 C 136.724 164.146,136.585 164.055,136.303 164.055 C 136.022 164.055,135.791 164.160,135.791 164.289 M188.326 165.284 C 188.326 165.622,188.200 165.899,188.047 165.899 C 187.894 165.899,187.841 166.174,187.929 166.510 C 188.016 166.846,188.182 167.063,188.296 166.992 C 188.544 166.839,188.724 164.670,188.489 164.670 C 188.399 164.670,188.326 164.946,188.326 165.284 M72.090 165.540 C 71.621 166.058,71.678 166.513,72.212 166.513 C 72.334 166.513,72.660 166.167,72.936 165.745 C 73.555 164.801,72.902 164.642,72.090 165.540 M107.237 165.766 C 107.435 166.004,107.728 166.118,107.889 166.018 C 108.247 165.797,107.981 165.495,107.347 165.402 C 106.977 165.348,106.954 165.425,107.237 165.766 M107.653 166.941 C 107.408 167.206,107.445 167.423,107.788 167.743 C 108.201 168.129,108.232 168.114,108.042 167.618 C 107.866 167.161,107.943 167.084,108.444 167.215 C 109.206 167.415,109.245 167.246,108.525 166.864 C 108.169 166.674,107.875 166.700,107.653 166.941 M70.881 168.139 C 70.775 168.417,70.829 168.731,71.002 168.838 C 71.445 169.112,71.540 168.912,71.290 168.225 C 71.101 167.705,71.052 167.694,70.881 168.139 M108.769 168.834 C 109.010 169.124,109.059 169.410,108.890 169.532 C 108.374 169.903,108.478 170.378,109.084 170.424 C 109.410 170.449,109.677 170.339,109.677 170.181 C 109.677 170.022,109.552 169.892,109.399 169.892 C 109.246 169.892,109.188 169.635,109.270 169.320 C 109.363 168.964,109.220 168.672,108.891 168.545 C 108.436 168.371,108.419 168.411,108.769 168.834 M189.166 170.737 C 189.064 170.937,189.095 175.608,189.208 176.984 C 189.229 177.252,189.433 177.471,189.660 177.471 C 189.988 177.471,190.012 177.186,189.775 176.075 C 189.562 175.077,189.576 174.647,189.823 174.565 C 190.374 174.381,190.281 170.507,189.726 170.507 C 189.483 170.507,189.231 170.611,189.166 170.737 M70.177 171.956 C 70.273 172.855,70.661 173.261,70.661 172.463 C 70.661 172.131,70.797 171.722,70.963 171.556 C 71.162 171.357,71.067 171.253,70.684 171.253 C 70.261 171.253,70.122 171.444,70.177 171.956 M109.977 173.167 C 110.150 173.253,110.292 173.458,110.292 173.623 C 110.292 173.788,110.154 173.837,109.986 173.733 C 109.788 173.611,109.774 173.795,109.946 174.253 C 110.270 175.113,110.029 177.027,109.558 177.338 C 109.345 177.478,109.419 177.565,109.754 177.568 C 110.162 177.572,110.305 177.294,110.348 176.421 C 110.480 173.715,110.431 173.166,110.054 173.090 C 109.838 173.046,109.804 173.081,109.977 173.167 M134.040 176.959 C 134.040 177.888,134.097 178.268,134.168 177.803 C 134.238 177.339,134.238 176.578,134.168 176.114 C 134.097 175.649,134.040 176.029,134.040 176.959 M69.738 178.949 C 69.851 179.975,69.798 180.771,69.603 180.966 C 69.157 181.411,69.188 203.258,69.634 203.705 C 69.832 203.903,69.871 204.503,69.733 205.252 C 69.577 206.108,69.613 206.440,69.855 206.355 C 70.209 206.231,70.204 202.146,69.849 201.229 C 69.572 200.514,69.745 196.502,70.067 196.175 C 70.441 195.794,70.441 188.230,70.067 187.849 C 69.728 187.505,69.578 183.480,69.877 182.757 C 70.229 181.904,70.228 177.492,69.876 177.369 C 69.660 177.293,69.614 177.819,69.738 178.949 M188.752 181.720 C 188.753 183.917,188.802 184.775,188.861 183.628 C 188.920 182.480,188.920 180.683,188.860 179.634 C 188.800 178.585,188.752 179.524,188.752 181.720 M189.555 180.338 C 189.555 180.845,189.693 181.260,189.862 181.260 C 190.031 181.260,190.169 180.845,190.169 180.338 C 190.169 179.831,190.031 179.416,189.862 179.416 C 189.693 179.416,189.555 179.831,189.555 180.338 M109.510 192.320 C 109.510 198.825,109.550 201.486,109.600 198.233 C 109.650 194.981,109.650 189.658,109.600 186.406 C 109.550 183.153,109.510 185.814,109.510 192.320 M109.985 192.320 C 109.985 200.048,110.089 203.966,110.292 203.840 C 110.488 203.719,110.599 199.542,110.599 192.320 C 110.599 185.097,110.488 180.920,110.292 180.799 C 110.089 180.673,109.985 184.591,109.985 192.320 M134.053 183.871 C 134.054 185.223,134.108 185.738,134.173 185.015 C 134.238 184.292,134.237 183.186,134.171 182.557 C 134.105 181.928,134.052 182.519,134.053 183.871 M189.650 183.257 C 189.651 184.270,189.709 184.648,189.777 184.096 C 189.846 183.544,189.844 182.714,189.774 182.253 C 189.704 181.791,189.648 182.243,189.650 183.257 M188.633 198.756 C 188.633 199.085,188.830 199.466,189.072 199.601 C 189.313 199.736,189.510 199.981,189.510 200.146 C 189.509 200.311,189.657 200.495,189.839 200.556 C 190.020 200.616,190.169 200.434,190.169 200.150 C 190.169 199.867,189.892 199.563,189.555 199.475 C 189.217 199.386,188.940 199.106,188.940 198.851 C 188.940 198.455,189.015 198.450,189.460 198.810 C 189.746 199.042,189.883 199.071,189.765 198.874 C 189.647 198.677,189.724 198.446,189.937 198.361 C 190.149 198.275,189.942 198.194,189.478 198.181 C 188.837 198.163,188.633 198.301,188.633 198.756 M188.710 203.405 C 188.249 203.580,188.032 203.900,188.060 204.368 L 188.102 205.069 188.235 204.378 C 188.308 203.998,188.505 203.687,188.672 203.687 C 188.840 203.687,188.880 203.859,188.761 204.071 C 188.643 204.282,188.799 204.216,189.109 203.924 C 189.799 203.274,189.632 203.056,188.710 203.405 M135.788 204.461 C 135.458 205.077,135.451 205.313,135.754 205.613 C 136.056 205.913,136.092 205.879,135.929 205.449 C 135.815 205.151,135.896 204.699,136.108 204.443 C 136.320 204.188,136.428 203.913,136.347 203.833 C 136.267 203.753,136.015 204.036,135.788 204.461 M187.510 206.385 C 187.413 206.756,187.221 206.989,187.083 206.904 C 186.945 206.819,186.751 206.880,186.652 207.040 C 186.553 207.200,186.607 207.414,186.771 207.515 C 187.127 207.735,188.194 206.218,187.894 205.918 C 187.780 205.804,187.607 206.014,187.510 206.385 M109.370 206.444 C 109.370 206.637,109.501 206.714,109.660 206.616 C 109.821 206.516,110.006 207.090,110.076 207.903 L 110.201 209.370 110.170 207.858 C 110.143 206.599,109.370 205.231,109.370 206.444 M137.236 207.885 C 137.322 208.111,137.516 208.295,137.667 208.295 C 137.818 208.295,137.942 208.111,137.942 207.885 C 137.942 207.660,137.747 207.476,137.510 207.476 C 137.273 207.476,137.149 207.660,137.236 207.885 M185.999 207.952 C 186.091 208.101,185.879 208.619,185.526 209.104 L 184.886 209.985 185.684 209.123 C 186.525 208.215,186.700 207.680,186.157 207.680 C 185.978 207.680,185.907 207.802,185.999 207.952 M69.173 212.596 C 69.132 216.259,69.194 216.897,69.591 216.897 C 69.946 216.897,70.007 216.696,69.847 216.058 C 69.583 215.005,69.586 214.767,69.877 213.863 C 70.039 213.360,70.006 213.199,69.772 213.344 C 69.558 213.476,69.432 213.273,69.432 212.801 C 69.432 212.386,69.639 211.968,69.892 211.870 C 70.164 211.766,70.338 211.342,70.317 210.839 L 70.281 209.985 70.046 210.906 C 69.853 211.665,69.805 211.515,69.775 210.061 C 69.701 206.433,69.219 208.458,69.173 212.596 M109.419 210.638 C 109.392 211.167,109.572 211.767,109.819 211.971 C 110.120 212.222,110.301 213.113,110.371 214.697 L 110.475 217.051 110.537 214.363 C 110.587 212.202,110.512 211.674,110.158 211.674 C 109.890 211.674,109.668 211.282,109.592 210.676 L 109.469 209.677 109.419 210.638 M144.597 211.930 C 144.654 212.155,144.700 212.466,144.700 212.621 C 144.700 212.776,145.081 212.894,145.545 212.884 C 146.374 212.865,146.377 212.859,145.679 212.579 C 145.252 212.408,145.056 212.152,145.189 211.937 C 145.320 211.725,145.276 211.662,145.081 211.782 C 144.901 211.894,144.695 211.881,144.623 211.753 C 144.552 211.625,144.540 211.705,144.597 211.930 M178.280 211.918 C 178.038 212.072,178.010 212.306,178.199 212.604 C 178.427 212.965,178.486 212.971,178.490 212.635 C 178.494 212.295,178.584 212.288,178.955 212.596 C 179.340 212.916,179.416 212.871,179.416 212.326 C 179.416 211.664,178.946 211.494,178.280 211.918 M70.425 214.132 C 70.425 214.724,70.488 214.965,70.565 214.670 C 70.642 214.374,70.642 213.890,70.565 213.594 C 70.488 213.299,70.425 213.541,70.425 214.132 M69.320 221.353 C 69.212 221.633,69.134 225.895,69.146 230.824 C 69.158 235.752,69.279 239.508,69.415 239.171 C 69.551 238.833,69.589 238.431,69.499 238.278 C 69.410 238.125,69.496 238.099,69.691 238.220 C 69.914 238.357,70.046 238.210,70.046 237.824 C 70.046 237.486,69.942 237.146,69.816 237.067 C 69.689 236.989,69.573 234.665,69.558 231.903 L 69.530 226.882 69.725 230.722 L 69.921 234.562 69.965 230.876 C 69.989 228.848,69.901 226.532,69.769 225.730 C 69.637 224.927,69.645 224.270,69.788 224.270 C 69.930 224.270,70.062 223.959,70.082 223.579 C 70.112 223.008,70.164 223.049,70.376 223.810 C 70.567 224.491,70.591 224.332,70.470 223.195 C 70.287 221.486,69.657 220.476,69.320 221.353 M112.847 229.693 C 112.957 229.803,112.807 230.090,112.514 230.330 C 112.221 230.571,112.154 230.680,112.366 230.573 C 112.577 230.466,112.750 230.516,112.750 230.683 C 112.750 230.851,113.028 231.076,113.369 231.184 C 113.737 231.301,113.900 231.527,113.770 231.743 C 113.651 231.942,113.806 231.899,114.114 231.649 C 114.648 231.215,114.640 231.184,113.942 230.988 C 113.370 230.828,113.338 230.777,113.795 230.753 C 114.333 230.724,114.323 230.673,113.671 230.108 C 113.026 229.548,112.374 229.220,112.847 229.693 M115.185 233.360 C 114.941 233.654,115.016 233.706,115.502 233.579 C 116.278 233.376,116.580 232.975,115.957 232.975 C 115.708 232.975,115.361 233.148,115.185 233.360 M117.766 234.946 C 117.748 235.411,117.798 235.547,117.876 235.250 C 117.959 234.934,118.169 234.798,118.380 234.925 C 118.581 235.045,118.554 234.912,118.319 234.621 C 117.784 233.962,117.805 233.949,117.766 234.946 M119.073 235.133 C 119.180 235.411,119.468 235.637,119.713 235.637 C 119.958 235.637,120.074 235.776,119.969 235.945 C 119.700 236.380,120.227 236.326,120.721 235.868 C 121.057 235.556,121.089 235.570,120.891 235.945 C 120.701 236.304,120.733 236.327,121.034 236.048 C 121.565 235.558,121.180 235.045,120.428 235.242 C 120.089 235.330,119.603 235.229,119.346 235.016 C 118.957 234.693,118.912 234.712,119.073 235.133 M121.720 236.006 C 121.518 236.209,121.363 236.589,121.376 236.851 C 121.392 237.170,121.452 237.200,121.556 236.941 C 121.641 236.729,121.838 236.633,121.992 236.729 C 122.147 236.824,122.276 236.722,122.278 236.500 C 122.282 236.208,122.364 236.224,122.581 236.559 C 122.815 236.921,122.879 236.930,122.883 236.598 C 122.887 236.270,122.984 236.257,123.321 236.536 C 123.643 236.804,123.810 236.806,123.970 236.547 C 124.309 236.000,123.614 235.470,123.109 235.889 C 122.836 236.116,122.584 236.132,122.389 235.937 C 122.194 235.742,121.960 235.766,121.720 236.006 M70.353 237.411 C 70.353 237.937,70.232 238.441,70.083 238.533 C 69.934 238.625,69.746 239.049,69.664 239.476 C 69.547 240.090,69.600 240.182,69.920 239.916 C 70.358 239.552,70.854 236.957,70.544 236.647 C 70.439 236.543,70.353 236.886,70.353 237.411 M132.306 237.558 C 132.490 237.856,170.547 237.851,171.015 237.553 C 171.210 237.429,162.549 237.327,151.767 237.327 C 140.985 237.327,132.227 237.431,132.306 237.558 M171.801 237.883 C 171.870 238.717,173.269 238.332,173.265 237.481 C 173.263 237.071,173.229 237.071,172.965 237.481 C 172.766 237.788,172.665 237.814,172.662 237.558 C 172.660 237.346,172.452 237.174,172.200 237.174 C 171.910 237.174,171.764 237.433,171.801 237.883 M179.260 239.022 C 179.153 239.194,178.917 239.241,178.733 239.128 C 178.534 239.005,178.488 239.065,178.619 239.277 C 178.739 239.472,179.141 239.620,179.511 239.607 C 179.881 239.594,180.011 239.513,179.798 239.427 C 179.586 239.342,179.491 239.145,179.586 238.991 C 179.682 238.836,179.691 238.710,179.606 238.710 C 179.522 238.710,179.366 238.850,179.260 239.022 M181.260 240.092 C 181.470 240.346,181.780 240.553,181.949 240.553 C 182.121 240.553,182.087 240.349,181.874 240.092 C 181.664 239.839,181.353 239.631,181.184 239.631 C 181.013 239.631,181.046 239.835,181.260 240.092 M183.503 241.411 C 183.301 241.539,183.232 241.793,183.350 241.974 C 183.613 242.379,184.639 242.404,184.639 242.005 C 184.639 241.846,184.439 241.793,184.194 241.887 C 183.896 242.001,183.805 241.910,183.919 241.613 C 184.112 241.111,184.034 241.074,183.503 241.411 M69.198 247.926 C 69.242 250.292,69.392 252.227,69.530 252.227 C 69.669 252.227,69.758 251.916,69.727 251.536 C 69.696 251.156,69.706 250.361,69.748 249.770 L 69.826 248.694 70.046 249.923 L 70.266 251.152 70.310 249.990 C 70.339 249.211,70.202 248.770,69.892 248.652 C 69.639 248.555,69.432 248.136,69.432 247.722 C 69.432 247.249,69.558 247.047,69.772 247.179 C 70.006 247.324,70.039 247.162,69.877 246.659 C 69.586 245.755,69.583 245.517,69.847 244.465 C 70.008 243.824,69.946 243.625,69.588 243.625 C 69.184 243.625,69.129 244.235,69.198 247.926 M186.566 245.791 C 186.519 246.405,186.927 246.606,187.229 246.118 C 187.321 245.968,187.220 245.698,187.004 245.519 C 186.708 245.274,186.600 245.341,186.566 245.791 M70.425 246.390 C 70.425 246.982,70.488 247.224,70.565 246.928 C 70.642 246.632,70.642 246.148,70.565 245.853 C 70.488 245.557,70.425 245.799,70.425 246.390 M189.488 248.493 C 189.705 248.631,189.807 248.940,189.715 249.180 C 189.618 249.432,189.842 249.795,190.242 250.037 C 190.783 250.363,190.852 250.367,190.553 250.051 C 190.342 249.829,190.169 249.329,190.169 248.940 C 190.169 248.470,189.989 248.235,189.631 248.238 C 189.236 248.242,189.198 248.309,189.488 248.493 M69.673 253.456 C 69.748 253.963,69.862 254.378,69.927 254.378 C 69.993 254.378,70.046 253.963,70.046 253.456 C 70.046 252.949,69.932 252.535,69.792 252.535 C 69.652 252.535,69.599 252.949,69.673 253.456 M69.736 255.898 C 69.900 256.795,69.847 257.233,69.543 257.485 C 69.313 257.676,69.127 258.058,69.130 258.333 C 69.133 258.641,69.376 258.457,69.765 257.849 C 70.428 256.814,70.481 254.978,69.855 254.773 C 69.613 254.694,69.578 255.032,69.736 255.898 M190.968 255.249 C 190.877 255.396,191.002 255.779,191.244 256.099 C 191.671 256.663,191.686 256.660,191.695 256.009 C 191.706 255.290,191.242 254.806,190.968 255.249 M69.508 258.854 C 68.994 259.408,69.021 260.669,69.558 261.114 C 69.890 261.389,70.045 261.387,70.220 261.104 C 70.365 260.870,70.318 260.815,70.094 260.954 C 69.898 261.074,69.728 261.061,69.715 260.924 C 69.702 260.788,69.642 260.407,69.580 260.079 C 69.432 259.285,69.748 258.814,70.080 259.337 C 70.225 259.567,70.344 259.616,70.344 259.447 C 70.344 258.750,69.898 258.433,69.508 258.854 M70.208 262.046 C 70.097 262.224,70.229 262.455,70.501 262.559 C 71.177 262.819,71.387 262.534,70.849 262.087 C 70.546 261.836,70.345 261.823,70.208 262.046 M70.188 263.921 C 69.983 264.252,70.514 264.808,71.045 264.819 C 71.423 264.826,71.306 264.310,70.841 263.924 C 70.513 263.652,70.355 263.651,70.188 263.921 M72.157 267.987 C 72.389 268.274,72.476 268.510,72.350 268.510 C 72.224 268.510,72.293 268.717,72.504 268.971 C 72.714 269.224,73.042 269.430,73.233 269.427 C 73.436 269.424,73.406 269.312,73.160 269.157 C 72.919 269.004,72.875 268.843,73.055 268.778 C 73.228 268.715,73.001 268.394,72.552 268.063 C 71.916 267.596,71.829 267.579,72.157 267.987 M186.966 270.251 C 186.880 270.476,186.532 270.661,186.194 270.661 C 185.774 270.661,185.636 270.806,185.757 271.121 C 185.854 271.375,185.795 271.582,185.626 271.582 C 185.457 271.582,185.238 271.793,185.140 272.050 C 184.993 272.432,185.072 272.458,185.568 272.193 C 185.902 272.014,186.175 271.665,186.175 271.418 C 186.175 271.170,186.447 270.968,186.779 270.968 C 187.111 270.968,187.518 270.714,187.684 270.405 C 187.910 269.983,187.877 269.841,187.554 269.841 C 187.317 269.841,187.052 270.026,186.966 270.251 M73.952 270.568 C 74.085 270.914,74.196 270.961,74.280 270.709 C 74.378 270.414,74.506 270.410,74.845 270.691 C 75.199 270.985,75.246 270.958,75.089 270.550 C 74.983 270.273,74.638 270.046,74.324 270.046 C 73.912 270.046,73.808 270.192,73.952 270.568 M75.510 272.193 C 75.584 272.699,75.768 273.036,75.918 272.943 C 76.068 272.851,76.191 272.887,76.191 273.023 C 76.191 273.160,76.571 273.289,77.036 273.310 C 77.500 273.331,77.707 273.284,77.494 273.207 C 77.282 273.129,77.171 272.964,77.249 272.839 C 77.326 272.714,77.085 272.622,76.713 272.635 C 76.203 272.652,76.043 272.487,76.061 271.966 C 76.075 271.586,75.926 271.275,75.730 271.275 C 75.511 271.275,75.427 271.625,75.510 272.193 M84.908 277.152 C 84.947 277.351,85.289 277.629,85.669 277.770 C 86.107 277.932,86.291 277.915,86.173 277.722 C 86.070 277.556,85.798 277.419,85.568 277.419 C 85.339 277.419,85.081 277.278,84.995 277.104 C 84.909 276.931,84.870 276.953,84.908 277.152 M131.330 277.341 C 132.172 277.406,132.965 277.623,133.092 277.823 C 133.247 278.067,133.325 278.009,133.329 277.650 C 133.333 277.193,133.067 277.120,131.567 277.168 L 129.800 277.223 131.330 277.341 M167.512 277.332 C 167.976 277.403,168.737 277.403,169.201 277.332 C 169.666 277.262,169.286 277.204,168.356 277.204 C 167.427 277.204,167.047 277.262,167.512 277.332 M144.046 277.810 C 144.177 277.941,146.970 278.010,150.253 277.963 L 156.221 277.879 150.015 277.726 C 146.601 277.642,143.915 277.680,144.046 277.810 M139.104 277.953 C 139.997 278.016,141.379 278.015,142.176 277.952 C 142.973 277.889,142.243 277.838,140.553 277.839 C 138.863 277.840,138.211 277.891,139.104 277.953 M157.988 277.952 C 158.790 278.016,160.104 278.016,160.906 277.952 C 161.709 277.889,161.052 277.837,159.447 277.837 C 157.842 277.837,157.185 277.889,157.988 277.952 " stroke="none" fill="#f49404" fill-rule="evenodd"></path></g></svg>